<?xml version="1.0" standalone="no"?>
<!DOCTYPE svg PUBLIC "-//W3C//DTD SVG 20010904//EN"
 "http://www.w3.org/TR/2001/REC-SVG-20010904/DTD/svg10.dtd">
<svg version="1.0" xmlns="http://www.w3.org/2000/svg"
 width="918.000000pt" height="918.000000pt" viewBox="0 0 918.000000 918.000000"
 preserveAspectRatio="xMidYMid meet">
<metadata>
Created by potrace 1.11, written by Peter Selinger 2001-2013
</metadata>
<g transform="translate(0.000000,918.000000) scale(0.100000,-0.100000)"
fill="#000000" stroke="none">
<path d="M4017 7692 c-13 -20 -445 -726 -960 -1568 l-937 -1532 958 -1566
c526 -861 960 -1565 963 -1566 8 0 5100 3109 5117 3124 11 10 -1781 1111
-4975 3058 l-143 87 -23 -37z m1874 -1803 c902 -551 1638 -1003 1635 -1006 -4
-4 -4518 -22 -4524 -17 -6 4 1233 2024 1241 2024 5 0 747 -451 1648 -1001z"/>
<path d="M2925 7293 c-129 -101 -355 -289 -473 -394 l-82 -74 -675 -1104
c-371 -607 -675 -1107 -675 -1111 0 -4 282 -468 626 -1031 345 -563 646 -1059
670 -1102 26 -47 64 -97 96 -126 139 -127 414 -354 551 -455 l79 -58 -7 49
c-11 79 -63 338 -96 478 -58 247 -88 346 -118 384 -46 58 -1135 1845 -1135
1861 0 8 263 445 584 970 l585 955 32 125 c61 233 161 706 151 715 -2 2 -52
-35 -113 -82z"/>
<path d="M1350 6416 c-66 -38 -237 -151 -367 -242 -37 -25 -106 -133 -513
-797 l-470 -767 442 -723 c243 -397 450 -739 460 -760 19 -38 80 -88 243 -197
118 -79 288 -179 297 -174 12 7 -9 271 -38 484 -15 107 -19 119 -59 180 -70
105 -725 1180 -725 1190 0 5 171 289 381 631 l381 623 13 81 c13 78 40 328 49
453 3 43 1 62 -8 62 -6 0 -45 -20 -86 -44z"/>
</g>
</svg>
