<svg xmlns="http://www.w3.org/2000/svg" viewBox="0 0 458.45 313.4"><defs><style>.cls-1{fill:#88be6f;}.cls-2{fill:#ec5567;}.cls-3{fill:none;stroke:#000;stroke-miterlimit:10;stroke-width:27px;}</style></defs><title>logo</title><g id="Ebene_2" data-name="Ebene 2"><g id="Ebene_8" data-name="Ebene 8"><path d="M151.81,294.12c-6-4.24-11.66-8.7-17.16-13.26-2.79-2.25-5.43-4.59-8.15-6.89s-5.31-4.67-7.92-7a8.82,8.82,0,0,1-1.51-2.05c-.41-.74-.72-1.54-1.09-2.3a22.81,22.81,0,0,0-1.23-2.22l-1.33-2.16-5.29-8.64L97.56,232.28,55.25,163.14l-4.47-7.31,4.47-7.31L97.56,79.38l21.15-34.57,8-7c2.71-2.3,5.36-4.63,8.13-6.9,5.49-4.56,11.09-9,17-13.35-1.13,7.23-2.58,14.26-4.15,21.22-.76,3.5-1.63,6.92-2.44,10.38L142.6,59.42,121.44,94,79.13,163.14V148.52l42.31,69.15L132,235l5.29,8.64,1.32,2.16a18.33,18.33,0,0,0,1.41,2.1c.51.68,1.08,1.33,1.55,2a9,9,0,0,1,1.14,2.28c.92,3.4,1.78,6.83,2.66,10.25s1.69,6.89,2.42,10.4C149.36,279.78,150.77,286.83,151.81,294.12Z"/><path d="M72.08,248.71c-4.69-2.45-9-5.12-13.22-7.87-2.14-1.35-4.14-2.78-6.21-4.17s-4-2.86-6-4.32A4.43,4.43,0,0,1,45.59,231c-.26-.5-.44-1.06-.67-1.58a9.53,9.53,0,0,0-.81-1.51l-.88-1.45-3.56-5.8-7.1-11.61L4.15,162.62,0,155.83l4.15-6.78L32.57,102.6,46.78,79.38l6-4.29c2.06-1.39,4.07-2.82,6.19-4.18,4.19-2.76,8.48-5.45,13.08-8-.15,5.23-.59,10.28-1.14,15.26-.25,2.51-.6,5-.91,7.42L69,93,54.75,116.17,26.33,162.62V149.05l28.42,46.44,7.1,11.61,3.55,5.8.89,1.45a9.7,9.7,0,0,0,1,1.4c.37.45.78.86,1.11,1.33a4.39,4.39,0,0,1,.71,1.55c.4,2.42.75,4.86,1.11,7.3s.66,4.92.89,7.43C71.62,238.36,72,243.43,72.08,248.71Z"/><polygon class="cls-1" points="123.6 156.7 206.87 20.61 429.67 156.7 206.88 292.79 123.6 156.7"/><path d="M211.85,41.23l189,115.47-189,115.48L141.19,156.7,211.85,41.23M201.9,0,186.26,25.57,115.6,141,106,156.7l9.58,15.66,70.66,115.47L201.9,313.4l25.58-15.62L416.54,182.3l41.91-25.6-41.91-25.6L227.48,15.62,201.9,0Z"/><polygon class="cls-2" points="141.19 156.7 400.9 156.7 211.85 272.18 141.19 156.7"/><line class="cls-3" x1="141.19" y1="156.7" x2="418.21" y2="155.83"/></g></g></svg>